<svg width="1200" height="620" viewBox="0 0 1200 620" fill="none" xmlns="http://www.w3.org/2000/svg">
  <rect width="1200" height="620" fill="#F8FAFC"/>
  <text x="52" y="64" fill="#0F172A" font-size="30" font-family="Arial, sans-serif" font-weight="700">Low-Fidelity Prototype Wireframes</text>
  <text x="52" y="98" fill="#475569" font-size="18" font-family="Arial, sans-serif">Customized Route / DIY Route / Community Sharing</text>

  <rect x="60" y="130" width="330" height="450" rx="24" fill="white" stroke="#CBD5E1" stroke-width="3"/>
  <rect x="85" y="168" width="280" height="36" rx="8" fill="#E2E8F0"/>
  <rect x="85" y="222" width="280" height="120" rx="8" fill="#F1F5F9"/>
  <rect x="85" y="356" width="130" height="40" rx="8" fill="#BBF7D0"/>
  <rect x="235" y="356" width="130" height="40" rx="8" fill="#FDE68A"/>
  <rect x="85" y="412" width="280" height="140" rx="8" fill="#F8FAFC" stroke="#E2E8F0"/>
  <text x="90" y="157" fill="#0F172A" font-size="18" font-family="Arial, sans-serif" font-weight="700">Customized Route</text>

  <rect x="435" y="130" width="330" height="450" rx="24" fill="white" stroke="#CBD5E1" stroke-width="3"/>
  <rect x="460" y="168" width="280" height="36" rx="8" fill="#E2E8F0"/>
  <rect x="460" y="222" width="280" height="52" rx="8" fill="#F1F5F9"/>
  <rect x="460" y="286" width="280" height="170" rx="8" fill="#EFF6FF" stroke="#BFDBFE"/>
  <circle cx="500" cy="330" r="14" fill="#93C5FD"/>
  <circle cx="540" cy="360" r="14" fill="#93C5FD"/>
  <circle cx="580" cy="314" r="14" fill="#93C5FD"/>
  <circle cx="620" cy="370" r="14" fill="#93C5FD"/>
  <circle cx="660" cy="336" r="14" fill="#93C5FD"/>
  <rect x="460" y="474" width="280" height="78" rx="8" fill="#DCFCE7"/>
  <text x="465" y="157" fill="#0F172A" font-size="18" font-family="Arial, sans-serif" font-weight="700">DIY Route Editor</text>

  <rect x="810" y="130" width="330" height="450" rx="24" fill="white" stroke="#CBD5E1" stroke-width="3"/>
  <rect x="835" y="168" width="280" height="36" rx="8" fill="#E2E8F0"/>
  <rect x="835" y="222" width="280" height="95" rx="8" fill="#FFF7ED"/>
  <rect x="835" y="332" width="280" height="95" rx="8" fill="#F0FDF4"/>
  <rect x="835" y="442" width="280" height="110" rx="8" fill="#F8FAFC" stroke="#E2E8F0"/>
  <text x="840" y="157" fill="#0F172A" font-size="18" font-family="Arial, sans-serif" font-weight="700">Community Sharing</text>

  <text x="128" y="607" fill="#64748B" font-size="16" font-family="Arial, sans-serif">Wireframe Stage: Validate information architecture and interaction flow before visual polish.</text>
</svg>
