<svg width="1200" height="700" viewBox="0 0 1200 700" fill="none" xmlns="http://www.w3.org/2000/svg">
  <rect width="1200" height="700" fill="#F8FAFC"/>
  <text x="52" y="64" fill="#0F172A" font-size="30" font-family="Arial, sans-serif" font-weight="700">ClimbQuest System Architecture</text>

  <rect x="70" y="140" width="220" height="80" rx="12" fill="#DBEAFE" stroke="#93C5FD" stroke-width="2"/>
  <text x="108" y="188" fill="#1E3A8A" font-size="20" font-family="Arial, sans-serif" font-weight="700">Mobile Client</text>

  <rect x="360" y="90" width="290" height="100" rx="12" fill="#DCFCE7" stroke="#86EFAC" stroke-width="2"/>
  <text x="390" y="132" fill="#14532D" font-size="20" font-family="Arial, sans-serif" font-weight="700">Route Recommendation</text>
  <text x="448" y="160" fill="#166534" font-size="16" font-family="Arial, sans-serif">Service</text>

  <rect x="360" y="225" width="290" height="100" rx="12" fill="#FEF3C7" stroke="#FCD34D" stroke-width="2"/>
  <text x="430" y="267" fill="#92400E" font-size="20" font-family="Arial, sans-serif" font-weight="700">DIY Route Editor</text>
  <text x="448" y="295" fill="#92400E" font-size="16" font-family="Arial, sans-serif">Service</text>

  <rect x="360" y="360" width="290" height="100" rx="12" fill="#FFE4E6" stroke="#FDA4AF" stroke-width="2"/>
  <text x="408" y="402" fill="#9F1239" font-size="20" font-family="Arial, sans-serif" font-weight="700">Community Sharing</text>
  <text x="448" y="430" fill="#9F1239" font-size="16" font-family="Arial, sans-serif">Service</text>

  <rect x="740" y="160" width="390" height="330" rx="14" fill="white" stroke="#CBD5E1" stroke-width="3"/>
  <text x="780" y="210" fill="#0F172A" font-size="24" font-family="Arial, sans-serif" font-weight="700">Shared Data Layer</text>
  <rect x="780" y="240" width="310" height="60" rx="10" fill="#EEF2FF"/>
  <text x="818" y="277" fill="#3730A3" font-size="18" font-family="Arial, sans-serif">User Profile Database</text>
  <rect x="780" y="320" width="310" height="60" rx="10" fill="#ECFEFF"/>
  <text x="824" y="357" fill="#0E7490" font-size="18" font-family="Arial, sans-serif">Route Content Storage</text>
  <rect x="780" y="400" width="310" height="60" rx="10" fill="#F0FDF4"/>
  <text x="860" y="437" fill="#166534" font-size="18" font-family="Arial, sans-serif">Social Graph</text>

  <path d="M290 180H350" stroke="#334155" stroke-width="3"/>
  <path d="M650 140H730" stroke="#334155" stroke-width="3"/>
  <path d="M650 275H730" stroke="#334155" stroke-width="3"/>
  <path d="M650 410H730" stroke="#334155" stroke-width="3"/>
  <polygon points="350,180 338,172 338,188" fill="#334155"/>
  <polygon points="730,140 718,132 718,148" fill="#334155"/>
  <polygon points="730,275 718,267 718,283" fill="#334155"/>
  <polygon points="730,410 718,402 718,418" fill="#334155"/>

  <text x="70" y="608" fill="#64748B" font-size="17" font-family="Arial, sans-serif">
    Data Flow: client requests -> feature services -> shared data layer -> response to client
  </text>
</svg>
